/* XPM */
static char *image_xpm[] = {
/* width height ncolors chars_per_pixel */
"16 16 32 1",
"  c #0099cc",
". c #0099ff",
"+ c #00ccff",
"@ c #ffcc00",
"# c #006699",
"$ c #0066cc",
"% c #006666",
"& c #003366",
"* c #99ccff",
"= c #ffcc99",
"- c #33cccc",
"; c #ffffff",
"> c #6699cc",
", c #336699",
"' c #66cccc",
") c #66ccff",
"! c #ffcc66",
"~ c #339999",
"{ c #99cccc",
"] c #ccffff",
"^ c #ffffcc",
"/ c #3399cc",
"( c #ffff33",
"_ c #cccccc",
": c #33ccff",
"< c #ffcc33",
"[ c #ffcccc",
"} c #ccccff",
"| c #9999cc",
"1 c #ffff99",
"2 c #99ffff",
"3 c #669999",
"**{]')'*;;;;;;;;",
") * . +:;;^<@<^;",
"{) .   );;@![1[;",
"] . + .-;;<<;;;;",
"'. . . );;=<@^;;",
") + . +:;;;^<@;;",
">  .   );1=;<@;;",
"2:)/):));1<@(1;;",
"{'>>>*/{3>,3,>,{",
"*#'$>$/>~%,#,%,|",
"> / #}/',#%#&#&{",
"*$/{) /{>#,%,#,>",
"{/#]>*#>,#&#%#%}",
"'/*$/>>{~%,%,%{_",
">/> #/#>,#&#%>%{",
"]'*'*{*{{>{3]{|{",
};