/* XPM */
static char *image_xpm[] = {
/* width height ncolors chars_per_pixel */
"128 128 34 1",
"  c #0099cc",
". c #0099ff",
"+ c #00ccff",
"@ c #ffcc00",
"# c #cccc00",
"$ c #006699",
"% c #0066cc",
"& c #006666",
"* c #003366",
"= c #99ccff",
"- c #ffcc99",
"; c #33cccc",
"> c #ffffff",
", c #6699cc",
"' c #ffff66",
") c #336699",
"! c #66cccc",
"~ c #66ccff",
"{ c #ffcc66",
"] c #339999",
"^ c #99cccc",
"/ c #ccffff",
"( c #ffffcc",
"_ c #3399cc",
": c #ffff33",
"< c #cccccc",
"[ c #33ccff",
"} c #ffcc33",
"| c #ccccff",
"1 c #ffcccc",
"2 c #9999cc",
"3 c #99ffff",
"4 c #ffff99",
"5 c #669999",
">>>>>>>>>>>>>>>>>>>>>>>>>>>>>>>>>>>>>>>>>>>>>>>>>>>>>>>>>>>>>>>>>>>>>>>>>>>>>>>>>>>>>>>>>>>>>>>>>>>>>>>>>>>>>>>>>>>>>>>>>>>>>>>>",
">>>>>>>>>>>>>>>>>>>>>>>>>>>>>>>>>>>>>>>>>>>>>>>>>>>>>>>>>>>>>>>>>>>>>>>>>>>>>>>>>>>>>>>>>>>>>>>>>>>>>>>>>>>>>>>>>>>>>>>>>>>>>>>>",
">>>>>>>>>>>>>>>>>>>>>>>>>>>>>>>>>>>>>>>>>>>>>>>>>>>>>>>>>>>>>>>>>>>>>>>>>>>>>>>>>>>>>>>>>>>>>>>>>>>>>>>>>>>>>>>>>>>>>>>>>>>>>>>>",
">>>|/=/=/=/=/=/=/=/=/=>>>>>>>>>=/=/=/=/=/=/=/=/=/=/=/=/=/=/=//>>>>>>>>>>>>>>>>>>>>>>>>>>>>>>>>>>>>>>>>>>>>>>>>>>>>>>>>>>>>>>>>>>",
">>>[ . . . . . . . . 3>>>>>>>/ . . . . . . . . . . . . . . . ~>>>>>>>>>>>>>>>>>>>>>>>>>>>>>>>>-4{4{4{4->>>>>>>>>>>>>>>>>>>>>>>>>",
">>>;. + . + . + . + 3>>>>>>>/ + . + . + . + . + . + . + . + ._>>>>>>>>>>>>>>>>>>>>>>>>>>>>({}@}@@@}@@@}@}{(>>>>>>>>>>>>>>>>>>>>>",
">>>[   .   .   .   =>>>>>>>/   .   .   .   .   .   .   .   . ~>>>>>>>>>>>>>>>>>>>>>>>>>>-}@@@@@@#@@@@@@@#@@@}(>>>>>>>>>>>>>>>>>>",
">>>_+ . + + + . + 3>>>>>>>/ + . + + + . + + + . + + + . + + +[>>>>>>>>>>>>>>>>>>>>>>>>>}}@}@}@}@}@}@}@}@}@}@}@:->>>>>>>>>>>>>>>>",
">>>[ . . . . . . 3>>>>>>>/ . . . . . . . . . . . . . . . . . ~>>>>>>>>>>>>>>>>>>>>>>>4@@@@@@@@@@@@@@@@@@@@@@@@@@}>>>>>>>>>>>>>>>",
">>>[. + . + . + =>>>>>>>/ + . + . + . + . + . + . + . + . + ._>>>>>>>>>>>>>>>>>>>>>>4@}@@@}@@@}@@@}@@@}@@@}@@@}@@>>>>>>>>>>>>>>>",
">>>[   . . .   . >>>>>>/ . .   . . .   . . .   . . .   . . . [>>>>>>>>>>>>>>>>>>>>>4#@@@@@@@#@@@@@@@#@@@@@@@#@@@@>>>>>>>>>>>>>>>",
">>>_+ . + . + . +_>>>>/ + . + . + . + . + . + . + . + . + . +[>>>>>>>>>>>>>>>>>>>>(@}@}@}@}@}@}@}@}@}@}@}@}@}@}@'>>>>>>>>>>>>>>>",
">>>[ . . . . . . ._>>/ . . . . . . . . . . . . . . . . . . . ~>>>>>>>>>>>>>>>>>>>>@@@@@@@@@@@@@@@@@@@@@@@@@@@@@@{>>>>>>>>>>>>>>>",
">>>;. + . + . + . +_/ + . + . + . + . + . + . + . + . + . + ._>>>>>>>>>>>>>>>>>>>{}@@@}@@@}@@@}}4-((({'@@@}@@@}@4>>>>>>>>>>>>>>>",
">>>[   .   .   .   .   .   .   .   .   .   .   .   .   .   . ~>>>>>>>>>>>>>>>>>>1@@@@@@@#@@@@}1>>>>>>>>>-{@@@@@@->>>>>>>>>>>>>>>",
">>>_+ . + + + . + + + . + + + . + + + . + + + . + + + . + + +[>>>>>>>>>>>>>>>>>>4@}@}@}@}@}@'>>>>>>>>>>>>>>-:@}@>>>>>>>>>>>>>>>>",
">>>[ . . ~ . . . . . . . . . . . . . . . . . . . . . . . . . ~>>>>>>>>>>>>>>>>>>}@@@@@@@@@@}(>>>>>>>>>>>>>>>>4@}>>>>>>>>>>>>>>>>",
">>>[. + =>/ . + . + . + . + . + . + . + . + . + . + . + . + ._>>>>>>>>>>>>>>>>>>}@}@@@}@@@}{>>>>>>>>>>>>>>>>>>>->>>>>>>>>>>>>>>>",
">>>[   ~>>>/   . . .   . . .   . . .   . . .   . . .   . . . [>>>>>>>>>>>>>>>>>>@@@@#@@@@@@(>>>>>>>>>>>>>>>>>>>>>>>>>>>>>>>>>>>>",
">>>_+ =>>>>>/ . + . + . + . + . + . + . + . + . + . + . + . +[>>>>>>>>>>>>>>>>>(}@}@}@}@}@}->>>>>>>>>>>>>>>>>>>>>>>>>>>>>>>>>>>>",
">>>[ ~>>>>>>>3 . . . . . . . . . . . . . . . . . . . . . . . ~>>>>>>>>>>>>>>>>>(@@@@@@@@@@@{>>>>>>>>>>>>>>>>>>>>>>>>>>>>>>>>>>>>",
">>>;~>>>>>>>>_+ . + . + . + . + . + . + . + . + . + . + . + ._>>>>>>>>>>>>>>>>>(@@}@@@}@@@}@>>>>>>>>>>>>>>>>>>>>>>>>>>>>>>>>>>>>",
">>>/>>>>>>>>   .   .   .   .   .   .   .   .   .   .   .   . ~>>>>>>>>>>>>>>>>>>@@@@@@@@#@@@@>>>>>>>>>>>>>>>>>>>>>>>>>>>>>>>>>>>",
">>>>>>>>>>>_+ . + + + . + + + . + + + . + + + . + + + . + + +[>>>>>>>>>>>>>>>>>>'@}@}@}@}@}@}}(>>>>>>>>>>>>>>>>>>>>>>>>>>>>>>>>>",
">>>>>>>>>> . . . . . . . . . . . . . . . . . . . . . . . . . ~>>>>>>>>>>>>>>>>>>{@@@@@@@@@@@@@@4>>>>>>>>>>>>>>>>>>>>>>>>>>>>>>>>",
">>>>>>>>>_+ . + . + . + . + . + . + . + . + . + . + . + . + ._>>>>>>>>>>>>>>>>>>>@}@@@}@@@}@@@}@'(>>>>>>>>>>>>>>>>>>>>>>>>>>>>>>",
">>>>>>>> . .   . . .   . . .   . . .   . . .   . . .   . . . [>>>>>>>>>>>>>>>>>>>{@@#@@@@@@@#@@@@@{>>>>>>>>>>>>>>>>>>>>>>>>>>>>>",
">>>>>>>_+ . + . + . + . + . + . + . + . + . + . + . + . + . +[>>>>>>>>>>>>>>>>>>>(}@}@}@}@}@}@}@}@}}(>>>>>>>>>>>>>>>>>>>>>>>>>>>",
">>>>>> . . . . . . . . . . . . . . . . . . . . . . . . . . . ~>>>>>>>>>>>>>>>>>>>>-@@@@@@@@@@@@@@@@@@'(>>>>>>>>>>>>>>>>>>>>>>>>>",
">>>>>_+ . + . + . + . + . + . + . + . + . + . + . + . + . + ._>>>>>>>>>>>>>>>>>>>>>-@@}@@@}@@@}@@@}@@@:(>>>>>>>>>>>>>>>>>>>>>>>>",
">>>>   .   .   .   .   .   .   .   .   .   .   .   .   .   . ~>>>>>>>>>>>>>>>>>>>>>>{@@@#@@@@@@@#@@@@@@@->>>>>>>>>>>>>>>>>>>>>>>",
">>>;+ . + + + . + + + . + + + . + + + . + + + . + + + . + + +[>>>>>>>>>>>>>>>>>>>>>>>4}@}@}@}@}@}@}@}@}@}{>>>>>>>>>>>>>>>>>>>>>>",
">>>[ . . . . . . . . . . . . . . . . . . . . . . . . . . . . ~>>>>>>>>>>>>>>>>>>>>>>>>1}@@@@@@@@@@@@@@@@@@{>>>>>>>>>>>>>>>>>>>>>",
">>>[. + . + . + . + . + . + . + . + . + . + . + . + . + . + ._>>>>>>>>>>>>>>>>>>>>>>>>>>4@}@@@}@@@}@@@}@@@}->>>>>>>>>>>>>>>>>>>>",
">>>[   . . .   . . .   . . .   . . .   . . .   . . .   . . . [>>>>>>>>>>>>>>>>>>>>>>>>>>>(}@#@@@@@@@#@@@@@@@1>>>>>>>>>>>>>>>>>>>",
">>>_+ . + . + . + . + . + . + . + . + . + . + . + . + . + . +[>>>>>>>>>>>>>>>>>>>>>>>>>>>>>-:@}@}@}@}@}@}@}@'>>>>>>>>>>>>>>>>>>>",
">>>[ . . . . . . . . . . . . . . . . . . . . . . . . . . . . ~>>>>>>>>>>>>>>>>>>>>>>>>>>>>>>(}@@@@@@@@@@@@@@@(>>>>>>>>>>>>>>>>>>",
">>>;. + . + . + . + . + . + . + . + . + . + . + . + . + . + ._>>>>>>>>>>>>>>>>>>>>>>>>>>>>>>>>4@@@}@@@}@@@}@@}>>>>>>>>>>>>>>>>>>",
">>>[   .   .   .   .   .   .   .   .   .   .   .   .   .   . ~>>>>>>>>>>>>>>>>>>>>>>>>>>>>>>>>>(@@@@@@@@#@@@@@(>>>>>>>>>>>>>>>>>",
">>>_+ . + + + . + + + . + + + . + + + . + + + . + + + . + + +[>>>>>>>>>>>>>>>>>>>>>>>>>>>>>>>>>>>}}@}@}@}@}@}@(>>>>>>>>>>>>>>>>>",
">>>[ . . . . . . . . . . . . . . . . . . . . . . . . . . . . ~>>>>>>>>>>>>>>>>>>>>>>>>>>>>>>>>>>>(@@@@@@@@@@@@{>>>>>>>>>>>>>>>>>",
">>>[. + . + . + . + . + . + . + . + . + . + . + . + . + . + ._>>>>>>>>>>>>>>>>>>>>>>>>>>>>>>>>>>>>4@@@}@@@}@@@4>>>>>>>>>>>>>>>>>",
">>>[   . . .   . . .   . . .   . . .   . . .   . . .   . . . [>>>>>>>>>>>>>>>>>>>>>>>>>>>>>>>>>>>>(@#@@@@@@@#@{>>>>>>>>>>>>>>>>>",
">>>_+ . + . + . + . + . + . + . + . + . + . + . + . + . + . +[>>>>>>>>>>>>>>>>>>>>>>>>>>>>>>>>>>>>>@}@}@}@}@}@4>>>>>>>>>>>>>>>>>",
">>>[ . . . . . . . . . . . . . . . . . . . . . . . . . . . . ~>>>>>>>>>>>>>>(>>>>>>>>>>>>>>>>>>>>>>}@@@@@@@@@@{>>>>>>>>>>>>>>>>>",
">>>;. + . + . + . + . + . + . + . + . + . + . + . + . + . + ._>>>>>>>>>>>>>>4@(>>>>>>>>>>>>>>>>>>>>@@@}@@@}@@@(>>>>>>>>>>>>>>>>>",
">>>[   .   .   .   .   .   .   .   .   .   .   .   .   .   . ~>>>>>>>>>>>>>>}@@}->>>>>>>>>>>>>>>>>{@@@@@#@@@@@1>>>>>>>>>>>>>>>>>",
">>>_+ . + + + . + + + . + + + . + + + . + + + . + + + . + + +[>>>>>>>>>>>>>>:@}@}}(>>>>>>>>>>>>>>(}@}@}@}@}@}}>>>>>>>>>>>>>>>>>>",
">>>[ . . . . . . . . . . . . . . . . . . . . . . . . . . . . ~>>>>>>>>>>>>>>@@@@@@@}{(>>>>>>>>>>-}@@@@@@@@@@@'>>>>>>>>>>>>>>>>>>",
">>>[. + . + . + . + . + . + . + . + . + . + . + . + . + . + ._>>>>>>>>>>>>>(@@}@@@}@@@:{4(>((44}@@}@@@}@@@}@@(>>>>>>>>>>>>>>>>>>",
">>>[   . . .   . . .   . . .   . . .   . . .   . . .   . . . [>>>>>>>>>>>>>4#@@@@@@@#@@@@@@@#@@@@@@@#@@@@@@@}>>>>>>>>>>>>>>>>>>>",
">>>_+ . + . + . + . + . + . + . + . + . + . + . + . + . + . +[>>>>>>>>>>>>>{}@}@}@}@}@}@}@}@}@}@}@}@}@}@}@}@>>>>>>>>>>>>>>>>>>>>",
">>>[ . . . . . . . . . . . . . . . . . . . . . . . . . . . . ~>>>>>>>>>>>>>}@@@@@@@@@@@@@@@@@@@@@@@@@@@@@@@(>>>>>>>>>>>>>>>>>>>>",
">>>;. + . + . + . + . + . + . + . + . + . + . + . + . + . + ._>>>>>>>>>>>>>}@@}@@@}@@@}@@@}@@@}@@@}@@@}@@@(>>>>>>>>>>>>>>>>>>>>>",
">>>[   .   .   .   .   .   .   .   .   .   .   .   .   .   . ~>>>>>>>>>>>>>>{@@@#@@@@@@@#@@@@@@@#@@@@@@@@4>>>>>>>>>>>>>>>>>>>>>>",
">>>_+ . + + + . + + + . + + + . + + + . + + + . + + + . + + +[>>>>>>>>>>>>>>>('@}@}@}@}@}@}@}@}@}@}@}@}}(>>>>>>>>>>>>>>>>>>>>>>>",
">>>[ . . . . . . . . . . . . . . . . . . . . . . . . . . . . ~>>>>>>>>>>>>>>>>>>{}@@@@@@@@@@@@@@@@@@@}{>>>>>>>>>>>>>>>>>>>>>>>>>",
">>>[. + . + . + . + . + . + . + . + . + . + . + . + . + . + ._>>>>>>>>>>>>>>>>>>>>(-'@}@@@}@@@}@@@}}4>>>>>>>>>>>>>>>>>>>>>>>>>>>",
">>>[   . . .   . . .   . . .   . . .   . . .   . . .   . . . [>>>>>>>>>>>>>>>>>>>>>>>>(({4{'}{{4{((>>>>>>>>>>>>>>>>>>>>>>>>>>>>>",
">>>_+ . + . + . + . + . + . + . + . + . + . + . + . + . + . +[>>>>>>>>>>>>>>>>>>>>>>>>>>>>>>>>>>>>>>>>>>>>>>>>>>>>>>>>>>>>>>>>>>",
">>>[ . . . . . . . . . . . . . . . . . . . . . . . . . . . . ~>>>>>>>>>>>>>>>>>>>>>>>>>>>>>>>>>>>>>>>>>>>>>>>>>>>>>>>>>>>>>>>>>>",
">>>;. + . + . + . + . + . + . + . + . + . + . + . + . + . + ._>>>>>>>>>>>>>>>>>>>>>>>>>>>>>>>>>>>>>>>>>>>>>>>>>>>>>>>>>>>>>>>>>>",
">>>></|></|></|></|></|></|></|></|></|></|></|></|></|></|><>>>>>>>>>>>>>>>>>>>>>>>>>>>>>>>>>>>>>>>>>>>>>>>>>>>>>>>>>>>>>>>>>>>",
">>>>>>>>>>>>>>>>>>>>>>>>>>>>>>>>>>>>>>>>>>>>>>>>>>>>>>>>>>>>>>>>>>>>>>>>>>>>>>>>>>>>>>>>>>>>>>>>>>>>>>>>>>>>>>>>>>>>>>>>>>>>>>>>",
">>>>>>>>>>>>>>>>>>>>>>>>>>>>>>>>>>>>>>>>>>>>>>>>>>>>>>>>>>>>>>>>>>>>>>>>>>>>>>>>>>>>>>>>>>>>>>>>>>>>>>>>>>>>>>>>>>>>>>>>>>>>>>>>",
">>>>>>>>>>>>>>>>>>>>>>>>>>>>>>>>>>>>>>>>>>>>>>>>>>>>>>>>>>>>>>>>>>>>>>>>>>>>>>>>>>>>>>>>>>>>>>>>>>>>>>>>>>>>>>>>>>>>>>>>>>>>>>>>",
">>>^_,_,_,_,_,</</</<!_,_,_,_,_,_,_,_,_,^/</<|<=_,_,_,_,_,_,_^>>>^),)5)5)5),)5)5)5),)5)5)5),)5)5)5),)5)5)5),)5)5)5),)5)5)5),>>>>",
">>>__ _$_%_$_ >>>>>>>__$_%_$_ _$_%_$_ _$/>>>>>>,_%_$_ _$_%_$_,>>>2)&)$)&)$)&)$)&)$)&)$)&)$)&)$)&)$)&)$)&)$)&)$)&)$)&)$)&)$)&>>>>",
">>>,$_$ $ $ $_,>>>>>,_$ $ $ $_$ $ $ $_$,/>>>>>< $ $ $_$ $ $ $,>>>^*$&$*$&$*$&$*$&$*$&$*$&$*$&$*$&$*$&$*$&$*$&$*$&$*$&$*$&$*$>>>>",
">>>__$_%_$_%_$_,>>>,_$_%_$_%_$_%_$_%_$=>>^/>>^_%_$_%_$_%_$_%__>>>,)&)&)$)&)&)&)$)&)&)&)$)&)&)&)$)&)&)&)$)&)&)&)$)&)&)&)$)&)$>>>>",
">>>,$ $ $ $ $ $ ,>, $ $ $ $ $ $ $ $ $^>>_ $ $ $ $ $ $ $ $ $ $,>>>2*$*$&$*$*$*$&$*$*$*$&$*$*$*$&$*$*$*$&$*$*$*$&$*$*$*$&$*$*$>>>>",
">>>__%_$_ _$_%_$=>=$_%_$_ _$_%_$_ _ />>__ _$_%_$_ _$_%_$_ _$_,>>>2)&)$)&)$)&)$)&)$)&)$)&)$)&)$)&)$)&)$)&)$)&)$)&)$)&)$)&)$)$>>>>",
">>>,$_$ $_$ $_$ ,>, $_$ $_$ $_$ $_$/>/$ $_$ $_$ $_$ $_$ $_$ $,>>>^*$&$*$&)*$&$*$&)*$&$*$&)*$&$*$&)*$&$*$&)*$&$*$&)*$&$*$&)*$>>>>",
">>>__$_%_$_%_$_%!>=%_$_%_$_%_$_%_$!>>,_%_$_%_$_%_$_%_$_%_$_%__>>>2)$)&)$)&)$)&)$)&)$)&)$)&)$)&)$)&)$)&)$)&)$)&)$)&)$)&)$)&)$>>>>",
">>>,$ $ $ $ $ $ ,>, $ $ $ $ $ $ $ $!<>_ $ $ $ $ $ $ $ $ $ $ $,>>>^&$*$*$*$&$*$*$*$&$*$*$*$&$*$*$*$&$*$*$*$&$*$*$*$&$*$*$*$&)>>>>",
">>>__ _$_%_$_ _$=>=$_ _$_%_$_ _$_%_$=>>__%_$_ _$_%_$_ _$_%_$_,>>>2)&)$)&)$)&)$)&)$)&)$)&)$)&)$)&)$)&)$)&)$)&)$)&)$)&)$)&)$)&>>>>",
">>>,$_$ $ $ $_$ ,>, $_$ $ $ $_$ $ $ $=>>] $ $_$ $ $ $_$ $ $ $,>>>^*$&$*$&$*$&$*$&$*$&$*$&$*$&$*$&$*$&$*$&$*$&$*$&$*$&$*$&$*$>>>>",
">>>__$_%_$_%_$_%!>=%_$_%_$_%_$_%_$_%_$=>>$_%_$_%_$_%_$_%_$_%__>>>,)&)&)$)&)&)&)$)&)&)&)$)&)&)&)$)&)&)&)$)&)&)&)$)&)&)&)$)&)$>>>>",
">>>,$ $ $ $ $ $ ,>, $ $ $ $ $ $ $ $ $ $|<|$ $ $ $ $ $ $ $ $ $,>>>2*$*$&$*$*$*$&$*$*$*$&$*$*$*$&$*$*$*$&$*$*$*$&$*$*$*$&$*$*$>>>>",
">>>__%_$_ _$_%_$=>=$_%_$_ _$_%_$_ _$_%_$/>/ !,_$_ _$_%_$_ _$_,>>>2)&)$)&)$)&)$)&)$)&)$)&)$)&)$)&)$)&)$)&)$)&)$)&)$)&)$)&)$)$>>>>",
">>>,$_$ $_$ $_$ ,>, $_$ $_$ $_$ $_$ $_$ $/>>>>|,$_$ $_$ $_$ $,>>>^*$&$*$&)*$&$*$&)*$&$*$&)*$&$*$&)*$&$*$&)*$&$*$&)*$&$*$&)*$>>>>",
">>>__$_%_$_%_$_%!>=%_$_%_$_%_$_%_$_%_$_%__>>>>>>,_!,=^>>>%_%__>>>2)$)&)$)&)$)&)$)&)$)&)$)&)$)&)$)&)$)&)$)&)$)&)$)&)$)&)$)&)$>>>>",
">>>,$ $ $ $ $ $ ,>, $ $ $ $ $ $ $ $ $ $ $^>><>>>>>>><>>>>^$ $,>>>^&$*$*$*$&$*$*$*$&$*$*$*$&$*$*$*$&$*$*$*$&$*$*$*$&$*$*$*$&)>>>>",
">>>__ _$_%_$_ _$=>=$_ _$_%_$_ _$_%_$_ _$_^>>>>>>>|=,~___>>_$_,>>>2)&)$)&)$)&)$)&)$)&)$)&)$)&)$)&)$)&)$)&)$)&)$)&)$)&)$)&)$)&>>>>",
">>>,$_$ $ $ $_$ ,>, $_$ $ $ $_$ $ $ $_$ $=>>>>>>! $ $_$ ^>, $,>>>^*$&$*$&$*$&$*$&$*$&$*$&$*$&$*$&$*$&$*$&$*$&$*$&$*$&$*$&$*$>>>>",
">>>__$_%_$_%_$_%!>=%_$_%_$_%_$_%_$_%_$_%_<>>>>>>_$_%_$_%_/>___>>>,)&)&)$)&)&)&)$)&)&)&)$)&)&)&)$)&)&)&)$)&)&)&)$)&)&)&)$)&)$>>>>",
">>>,$ $ $ $ $ $ _>>!$ $ $ $ $ $ $ $ $ $_<><//>^_$ $ $ $ $^>=$,>>>2*$*$&$*$*$*$&$*$*$*$&$*$*$*$&$*$*$*$&$*$*$*$&$*$*$*$&$*$*$>>>>",
">>>__%_$_ _$_%_$_,>>=%_$_ _$_%_$_ _$_%_|>|_$_ _$_ _$_%_$__>>_,>>>2)&)$)&)$)&)$)&)$)&)$)&)$)&)$)&)$)&)$)&)$)&)$)&)$)&)$)&)$)$>>>>",
">>>,$_$ $_$ $_$ $__>>=$ $_$ $_$ $_$ $,<>^_$ $_$ $_$ $_$ $_,>^!>>>^*$&$*$&)*$&$*$&)*$&$*$&)*$&$*$&)*$&$*$&)*$&$*$&)*$&$*$&)*$>>>>",
">>>__$_%_$_%_$_%_$__>>/ _$_%_$_%_$_%!>>^_$_%_$_%_$_%_$_%_$_>><>>>2)$)&)$)&)$)&)$)&)$)&)$)&)$)&)$)&)$)&)$)&)$)&)$)&)$)&)$)&)$>>>>",
">>>,$ $ $ $ $ $ $ $ $/>/$ $ $ $ $ $!<>, $ $ $ $ $ $ $ $ $ _></>>>^&$*$*$*$&$*$*$*$&$*$*$*$&$*$*$*$&$*$*$*$&$*$*$*$&$*$*$*$&)>>>>",
">>>__ _$_%_$_ _$_%_$__/>>__$_ _$_%=>>,_$_%_$_ _$_%_$_ _$_%/>>|>>>2)&)$)&)$)&)$)&)$)&)$)&)$)&)$)&)$)&)$)&)$)&)$)&)$)&)$)&)$)&>>>>",
">>>,$_$ $ $ $_$ $ $ $_$=>>_ $_$ $=>>__$ $ $ $_$ $ $ $_$ $ |>>/>>>^*$&$*$&$*$&$*$&$*$&$*$&$*$&$*$&$*$&$*$&$*$&$*$&$*$&$*$&$*$>>>>",
">>>|/__%_$_%_$_%_$_%_$_%=>>^>>>|/>>__$_%_$_%_$_%_$_%_$_%_$>>><>>>,)&)&)$)&)&)&)$)&)&)&)$)&)&)&)$)&)&)&)$)&)&)&)$)&)&)&)$)&)$>>>>",
">>>/>>_ $ $ $ $ $ $ $ $ $,>>>>>></$ $ $ $ $ $ $ $ $ $ $ $ ,>>/>>>2*$*$&$*$*$*$&$*$*$*$&$*$*$*$&$*$*$*$&$*$*$*$&$*$*$*$&$*$*$>>>>",
">>>|>>/$_ _$_%_$_ _$_%_$_ >>>>>>>^_$_%_$_ _$_%_$_ _$_%_$_ _^>|>>>2)&)$)&)$)&)$)&)$)&)$)&)$)&)$)&)$)&)$)&)$)&)$)&)$)&)$)&)$)$>>>>",
">>>/>>< $_$ $_$ $_$ $_$ $_>>>>>>>>$ $_$ $_$ $_$ $_$ $_$ $_$ _^>>>^*$&$*$&)*$&$*$&)*$&$*$&)*$&$*$&)*$&$*$&)*$&$*$&)*$&$*$&)*$>>>>",
">>>|>>>%_$_%_$_%_$_%_$_%_$>>>>>>>>~ _$_%_$_%_$_%_$_%_$_%_$_%__>>>2)$)&)$)&)$)&)$)&)$)&)$)&)$)&)$)&)$)&)$)&)$)&)$)&)$)&)$)&),>>>>",
">>>/<>^ $ $ $ $ $ $ $ $ $ /><>>>>>>>2_$ $ $ $ $ $ $ $ $ $ $ $,>>>^&$*$*$*$&$*$*$*$&$*$*$*$&$*$*$*$&$*$*$*$&$*$*$*$&$*$*$*$5>>>>>",
">>>|>>>__%_$_ _$_%_$_ _$_%/>>>>>>,|>>>>!_%__///,_%_$_ _$_%_$_,>>>2)&)$)&)$)&)$)&)$)&)$)&)$)&)$)&)$)&)$)&)$)&)$)&)$)&)$)&),>>>>>>",
">>>^_!>>_ $ $_$ $ $ $_$ $=>/|>|=$ $_,/>>>|,>>>>>^ $ $_$ $ $ $,>>>^*$&$*$&$*$&$*$&$*$&$*$&$*$&$*$&$*$&$*$&$*$&$*$&$*$&$*$5>>>>>>>",
">>>__$=>>__%_$_%_$_%_$_%!>>__$_%_$_%_$_^>>>>>>>>>__%_$_%_$_%__>>>,)&)&)$)&)&)&)$)&)&)&)$)&)&)&)$)&)&)&)$)&)&)&)$)&)&)&),>>>>>>>>",
">>>,$ $^<>] $ $ $ $ $ $,<>_ $ $ $ $ $ $ $,/>>>>><!$ $ $ $ $ $,>>>2*$*$&$*$*$*$&$*$*$*$&$*$*$*$&$*$*$*$&$*$*$*$&$*$*$*$5>>>>>>>>>",
">>>__%_$=>>__%_$_ _$_%_/>,_$_%_$_ _$_%_$_ >>>>>>>/=__%_$_ _$_,>>>2)&)$)&)$)&)$)&)$)&)$)&)$)&)$)&)$)&)$)&)$)&)$)&)$)&),>>>>>>>>>>",
">>>,$_$ $=>>__$ $_$ $_<>!_$ $_$ $_$ $_$ $_,>>>>>>>>><!$ $_$ $!>>>^*$&$*$&)*$&$*$&)*$&$*$&)*$&$*$&)*$&$*$&)*$&$*$&)*$5>>>>>>>>>>>",
">>>__$_%_$|>>__%_$_%_<>^_$_%_$_%_$_%_$_%_$_|>>>>!_=/>>>|!%_^><>>>2)$)&)$)&)$)&)$)&)$)&)$)&)$)&)$)&)$)&)$)&)$)&)$)&),>>>>>>>>>>>>",
">>>,$ $ $ $=</$ $ $ ^><_$ $ $ $ $ $ $ $ $ $_^>^_$ $ ]^<>>><></>>>^&$*$*$*$&$*$*$*$&$*$*$*$&$*$*$*$&$*$*$*$&$*$*$*$5>>>>>>><]>>>>",
">>>__ _$_%_$/>>_,,_^>/_$_%_$_ _$_%_$_ _$_%_$>>_$_%_$_ __=>>>>|>>>2)&)$)&)$)&)$)&)$)&)$)&)$)&)$)&)$)&)$)&)$)&)$)&)5>>>>>>>>]&>>>>",
">>>,$_$ $ $ $|>>>>>>/_$ $ $ $_$ $ $ $_$ $ $ />$ $ $ $_$ $_/>>/>>>^*$&$*$&$*$&$*$&$*$&$*$&$*$&$*$&$*$&$*$&$*$&$*$&)<>>>>>|]*$>>>>",
">>>__$_%_$_%_$>>>>>>|$_%_$_%_$_%_$_%_$_%_$__><_%_$_%_$_%_$/>><>>>,)&)&)$)&)&)&)$)&)&)&)$)&)&)&)$)&)&)&)$)&)&)&)$)&)<>>>>]&)$>>>>",
">>>,$ $ $ $ $_>><>>>< $ $ $ $ $ $ $ $ $ $ $,>=$ $ $ $ $ $ _>>/>>>2*$*$&$*$*$*$&$*$*$*$&$*$*$*$&$*$*$*$&$*$*$*$&$*$*)<><]*$*$>>>>",
">>>__%_$_ _$_,>>>>>>> _$_ _$_%_$_ _$_%_$_ _,>^_$_ _$_%_$_ _,>|>>>2)&)$)&)$)&)$)&)$)&)$)&)$)&)$)&)$)&)$)&)$)&)$)&)$)&]<]&)$)$>>>>",
">>>,$_$ $_$ $_>>>>>>|_$ $_$ $_$ $_$ $_$ $_$^>!$ $_$ $_$ $_$ $!>>>^*$&$*$&)*$&$*$&)*$&$*$&)*$&$*$&)*$&$*$&)*$&$*$&)*$&$*$&)*$>>>>",
">>>__$_%_$_%_$/>>>>>!$_%_$_%_$_%_$_%_$_%_$_^>__%_$_%_$_%_$_%__>>>2)$)&)$)&)$)&)$)&)$)&)$)&)$)&)$)&)$)&)$)&)$)&)$)&)$)&)$)&)$>>>>",
">>>,$ $ $ $ $ $=<>>/$ $ $ $ $ $ $ $ $ $ $ $/<_$ $ $ $ $ $ $ $,>>>^&$*$*$*$&$*$*$*$&$*$*$*$&$*$*$*$&$*$*$*$))*$*$*$&$*$*$*$&)>>>>",
">>>__ _$_%_$_ _$__>>_ _$_%_$_ _$_%_$_ _$_%_/> _$_%_$_ _$_%_$_,>>>2)&)$)&)$)&)$)&)$)&)$)&)$)&)$)&)$)&)$)&)5>|]$)&)$)&)$)&)$)&>>>>",
">>>,$_$ $ $ $_$ $ ,>^_$ $ $ $_$ $ $ $_$ $ $><_$ $ $ $_$ $ $ $,>>>^*$&$*$&$*$&$*$&$*$&$*$&$*$&$*$&$*$&$*$)>>><)*$&$*$&$*$&$*$>>>>",
">>>__$_%_$_%_$_%_$_>>$_%_$_%_$_%_$_%_$_%_$,>/$_%_$_%_$_%_$_%__>>>,)&)&)$)&)&)&)$)&)&)&)$)&)&)&)$)&)&)&)]>>>>><)$)&)&)&)$)&)$>>>>",
">>>,$ $ $ $ $ $ $ $=>!$ $ $ $ $ $ $ $ $ $ _>, $ $ $ $ $ $ $ $,>>>2*$*$&$*$*$*$&$*$*$*$&$*$*$*$&$*$*$*$)>>>>>>>^$*$*$*$&$*$*$>>>>",
">>>__%_$_ _$_%_$_ __>/_$_ _$_%_$_ _$_%_$_ =>=%_$_ _$_%_$_ _$_,>>>2)&)$)&)$)&)$)&)$)&)$)&)$)&)$)&)$)&)5>>>>>>>>,&)$)&)$)&)$)$>>>>",
">>>,$_$ $_$ $_$ $_$ <>_ $_$ $_$ $_$ $_$ $_^>__$ $_$ $_$ $_$ $,>>>^*$&$*$&)*$&$*$&)*$&$*$&)*$&$*$&)*$)>>>>>>>>,*$&)*$&$*$&)*$>>>>",
">>>__$_%_$_%_$_%_$_%!>>/=__%_$_%_$_%_$_%,^>>=$_%_$_%_$_%_$_%__>>>2)$)&)$)&)$)&)$)&)$)&)$)&)$)&)$)&)5>>>>>>>>,&)$)&)$)&)$)&)$>>>>",
">>>,$ $ $ $ $ $ $ $_^>>>>/$ $ $ $ $ $ $_<>>><=$ $ $ $ $ $ $ $,>>>^&$*$*$*$&$*$*$*$&$*$*$*$&$*$*$*$)>>>>>>>>,*$*$*$&$*$*$*$&)>>>>",
">>>__ _$_%_$_ _$_%_,>>>>>>=$_ _$_%_$_ _<>>>>>>,$_%_$_ _$_%_$_,>>>2)&)$)&)$)&)$)&)$)&)$)&)$)&)$)&)5>>>>>>>>,&)$)&)$)&)$)&)$)&>>>>",
">>>!_,_,_,_,_,_,_,_=</</</^,_,_,_,_,_,_/</</</,,_,_,_,_,_,_,_=>>>^)5)5)5)5)5)5)5)5)5)5)5)5)5)5)55>>>>>>>>^)5)5)5)5)5)5)5)5)5>>>>",
">>>>>>>>>>>>>>>>>>>>>>>>>>>>>>>>>>>>>>>>>>>>>>>>>>>>>>>>>>>>>>>>>>>>>>>>>>>>>>>>>>>>>>>>>>>>>>>>>>>>>>>>>>>>>>>>>>>>>>>>>>>>>>>>",
">>>>>>>>>>>>>>>>>>>>>>>>>>>>>>>>>>>>>>>>>>>>>>>>>>>>>>>>>>>>>>>>>>>>>>>>>>>>>>>>>>>>>>>>>>>>>>>>>>>>>>>>>>>>>>>>>>>>>>>>>>>>>>>>",
">>>>>>>>>>>>>>>>>>>>>>>>>>>>>>>>>>>>>>>>>>>>>>>>>>>>>>>>>>>>>>>>>>>>>>>>>>>>>>>>>>>>>>>>>>>>>>>>>>>>>>>>>>>>>>>>>>>>>>>>>>>>>>>>",
};