/* XPM */
static char *image_xpm[] = {
/* width height ncolors chars_per_pixel */
"64 64 34 1",
"  c #0099cc",
". c #0099ff",
"+ c #00ccff",
"@ c #ffcc00",
"# c #cccc00",
"$ c #006699",
"% c #006666",
"& c #003366",
"* c #0066cc",
"= c #009999",
"- c #99ccff",
"; c #ffcc99",
"> c #ffffff",
", c #6699cc",
"' c #ffff66",
") c #336699",
"! c #66cccc",
"~ c #ffcc66",
"{ c #66ccff",
"] c #339999",
"^ c #99cccc",
"/ c #ccffff",
"( c #ffffcc",
"_ c #3399cc",
": c #ffff33",
"< c #cccccc",
"[ c #33ccff",
"} c #ffcc33",
"| c #ccccff",
"1 c #ffcccc",
"2 c #9999cc",
"3 c #ffff99",
"4 c #99ffff",
"5 c #669999",
">>>>>>>>>>>>>>>>>>>>>>>>>>>>>>>>>>>>>>>>>>>>>>>>>>>>>>>>>>>>>>>>",
">/>//|>//|>>>>>//|>//|>//|>//|>>>>>>>>>>>>>>>>>>>>>>>>>>>>>>>>>>",
">- .   . .^>>>^. . .   . . .   >>>>>>>>>>>>>>>;3~~~3;>>>>>>>>>>>",
">-. + . +->>>-+ + . + . + . + [>>>>>>>>>>>>('@}@}@}@}@'(>>>>>>>>",
">4 . . .!>>>-. . . . . . . . . >>>>>>>>>>>;@@@@@@@@@@@@@}>>>>>>>",
">-+ . + {>>-. + . + . + . + . [>>>>>>>>>>;}@@@}@@@}@@@}@}>>>>>>>",
">- .   . {^.   .   .   .   .   >>>>>>>>>1@@@@@@@@@@@@@@@}>>>>>>>",
">-+ + . + + + . + + + . + + + [>>>>>>>>>'@}@}@}3>>>(3}}@3>>>>>>>",
">4 .![ . . . . . . . . . . . . >>>>>>>>>@@@@@}1>>>>>>>;};>>>>>>>",
">-+{>/[ . + . + . + . + . + . [>>>>>>>>3@@}@@~>>>>>>>>>>>>>>>>>>",
">-!>>>^. . .   . . .   . . .   >>>>>>>>3@@@@#~>>>>>>>>>>>>>>>>>>",
">>>>>/[ + . + . + . + . + . + [>>>>>>>>3}@}@}@(>>>>>>>>>>>>>>>>>",
">>>>-. . . . . . . . . . . . . >>>>>>>>>@@@@@@@3>>>>>>>>>>>>>>>>",
">>>|[ + . + . + . + . + . + . [>>>>>>>>>'@}@@@}@~(>>>>>>>>>>>>>>",
">>-.   .   .   .   .   .   .   >>>>>>>>>1@@@@@@@#@~>>>>>>>>>>>>>",
">/[ + . + + + . + + + . + + + [>>>>>>>>>>(}@}@}@}@}}>>>>>>>>>>>>",
">4 . . . . . . . . . . . . . . >>>>>>>>>>>1}@@@@@@@@@(>>>>>>>>>>",
">-+ . + . + . + . + . + . + . [>>>>>>>>>>>>>'@}@@@}@@@>>>>>>>>>>",
">- .   . . .   . . .   . . .   >>>>>>>>>>>>>>(@@@@@@#@}>>>>>>>>>",
">-. + . + . + . + . + . + . + [>>>>>>>>>>>>>>>>~}@}@}@}(>>>>>>>>",
">4 . . . . . . . . . . . . . . >>>>>>>>>>>>>>>>>;@@@@@@3>>>>>>>>",
">-+ . + . + . + . + . + . + . [>>>>>>>>>>>>>>>>>>}}@@@}~>>>>>>>>",
">- .   .   .   .   .   .   .   >>>>>>>>>>>>>>>>>>3@@@@@'>>>>>>>>",
">-+ + . + + + . + + + . + + + [>>>>>>>'(>>>>>>>>>3}@}@}~>>>>>>>>",
">4 . . . . . . . . . . . . . . >>>>>>(@@~>>>>>>>(}@@@@@(>>>>>>>>",
">-+ . + . + . + . + . + . + . [>>>>>>;}@@@';(((;}@}@@@:>>>>>>>>>",
">- .   . . .   . . .   . . .   >>>>>>~@@@@@@#@@@@@@@#@;>>>>>>>>>",
">-. + . + . + . + . + . + . + [>>>>>>}}@}@}@}@}@}@}@}~>>>>>>>>>>",
">4 . . . . . . . . . . . . . . >>>>>>>~}@@@@@@@@@@@@~>>>>>>>>>>>",
">-+ . + . + . + . + . + . + . [>>>>>>>>>3}}@@@}@@@'(>>>>>>>>>>>>",
">- .   .   .   .   .   .   .   >>>>>>>>>>>>>;(;(1>>>>>>>>>>>>>>>",
">>>>>>>>>>>>>>>>>>>>>>>>>>>>>>>>>>>>>>>>>>>>>>>>>>>>>>>>>>>>>>>>",
">>>>>>>>>>>>>>>>>>>>>>>>>>>>>>>>>>>>>>>>>>>>>>>>>>>>>>>>>>>>>>>>",
">^____,/>|-_________/|>^______!>/)])])])])])])])])])])])])])])>>",
">-$ $ $!</) $ $ $ $!<><_$ $ $ ]>^$%$&$&$&$%$&$&$&$%$&$&$&$%$&$>>",
">^_$_ _$/__$_ _$_*-|_ _$_*_$_ _>/$)%)$)%)$)%)$)%)$)%)$)%)$)%)$>>",
">-$ $_$ ^,$ $_$ $-<_$_$ $ $ $_)><$&$%$&$%$&$%$&$%$&$%$&$%$&$%)>>",
">^_*_$_*|__*_$_*_$>,_$_*_$_*_$_>/%)%)%)$)%)%)%)$)%)%)%)$)%)%)%>>",
">^$ $ $ ^_$ $ $ $ $>_ $ $ $ $ ]>^$&$&$%$&$&$&$%$&$&$&$%$&$&$&$>>",
">^_$_*_$/__$_*_$_ __>__$_ _$_*_>/$)%)$)%)$)%)$)%)$)%)$)%)$)%)$>>",
">|$ $_$ ^,$ $_$ $_$ _>>/ __^__)><)&$%$&$%)&$%$&$%)&$%$&$%)&$%$>>",
">^_*_$_*/__*_$_*_$_*!>>>><|^>$_>/%)$)%)$)%)$)%)$)%)$)%)$)%)$)%>>",
">-$ $ $ ^,$ $ $ $ $ _>>>) $ ^!]>^$%$&$&$&$%$&$&$&$%$&$&$&$%$&$>>",
">^_$_ _$-|_$_ _$_*__>!-__*_$_/_>/$)%)$)%)$)%)$)%)$)%)$)%)$)%)$>>",
">-$ $_$ $!<_$_$ $ ,/__$ $ $ $-^><$&$%$&$%$&$%$&$%$&$%$&$%$&$%)>>",
">^_*_$_*_$!/!$_*_,/__$_*_$_*_<>>/%)%)%)$)%)%)%)$)%)%)%)$)%)%)%>>",
">|_ $ $ $ $_<!<|2|$ $ $ $ $ $><>^$&$&$%$&$&$&$%$&$&$&$%$&$&$&$>>",
">|>__*_$_ _$_>>>> _$_*_$_ _$_^>>/$)%)$)%)$)%)$)%)$)%)$)%)$)%)$>>",
">/>!$_$ $_$ $>>>>_$ $_$ $_$ $__><)&$%$&$%)&$%$&$%)&$%$&$%)&$%)>>",
"><>!_$_*_$_*_>>>>//,_${__$_*_$_>/%)$)%)$)%)$)%)$)%)$)%)$)%)$)<>>",
">-_/_ $ $ $ ,|^-$ _|</>>, $ $ ]>^$%$&$&$&$%$&$&$&$%$&$&$&$%)<>>>",
">^__>,_$_*_,>__$_*_$_>>>>__$_ _>/$)%)$)%)$)%)$)%)$)%)$)%)$]<>>>>",
">-$ _>_ $ _/__$ $ $ $->>^/<!=_2><$&$%$&$%$&$%$&$%$&$%$&$%)<>>>>>",
">^_*__>___>__$_*_$_*_$>__$,^>>>>/%)%)%)$)%)%)%)$)%)%)%)$)<>>>5>>",
">^$ $ _><>, $ $ $ $ $ | $ $ $><>^$&$&$%$&$&$&$%$&$&$&$%$&^>>)$>>",
">^_$_*_>>>-$_*_$_ _$__/$_ _$_,>>/$)%)$)%)$)%)$)%)$)%)$)%)$|5)$>>",
">|$ $_$>>>_ $_$ $_$ $,^ $_$ $_]><)&$%$&$%)&$%$&$%)&$%$&$%)&$%$>>",
">^_*_$__-/_*_$_*_$_*_,-*_$_*_$_>/%)$)%)$)%)$)%)$)%)$)2)$)%)$)%>>",
">-$ $ $ $-, $ $ $ $ $^, $ $ $ ]>^$%$&$&$&$%$&$&$&$%)<>^$&$%$&$>>",
">^_$_ _$__/$_ _$_*_$_|,$_*_$_ _>/$)%)$)%)$)%)$)%)$)<>>>])$)%)$>>",
">-$ $_$ $ <^__$ $ $ _>] $ $ $_)><$&$%$&$%$&$%$&$%)<>>>5$%$&$%)>>",
">^_*_$_*_ >>>__*_$__>>> _$_*_$_>/%)%)%)$)%)%)%)$)<>>>5)$)%)%)%>>",
">/^-^-^-^-</^|^-^^^|^|<|^^^-^-^><^2^2^2^2^2^2^2^<>>><^2^2^2^2^>>",
">>>>>>>>>>>>>>>>>>>>>>>>>>>>>>>>>>>>>>>>>>>>>>>>>>>>>>>>>>>>>>>>",
};