/* XPM */
static char *image_xpm[] = {
/* width height ncolors chars_per_pixel */
"32 32 33 1",
"  c #0099cc",
". c #00ccff",
"+ c #0099ff",
"@ c #ffcc00",
"# c #006699",
"$ c #0066cc",
"% c #006666",
"& c #003366",
"* c #99ccff",
"= c #ffcc99",
"- c #ffffff",
"; c #6699cc",
"> c #ffff66",
", c #336699",
"' c #66cccc",
") c #ffcc66",
"! c #66ccff",
"~ c #339999",
"{ c #99cccc",
"] c #ccffff",
"^ c #ffffcc",
"/ c #3399cc",
"( c #ffff33",
"_ c #cccccc",
": c #33ccff",
"< c #ffcc33",
"[ c #3399ff",
"} c #ccccff",
"| c #ffcccc",
"1 c #9999cc",
"2 c #ffff99",
"3 c #99ffff",
"4 c #669999",
"--}-]---]-}-]-}-----------------",
"] . :]-/+ . + .*------^)>)2^----",
"_+ +{-/+ + +   *----|<@@@@@@<---",
"- + :[+ . + . +*----(@<<2)<@>---",
"}:{+ + + + + + *---^@@@----^=---",
"-]-/+ . + . + .*---2@@(---------",
"--/+   +   +   *---^@@@<=-------",
"-:. . + . . . +*----2@<@<)------",
"}+ + + + + + + *-----2@@@@@^----",
"] . + . + . + .*-------)@@<<----",
"_+ +   + + +   *--------)@@@|---",
"- + . + . + . +*---^-----@<@----",
"}+ + + + + + + *--)@)^|^<@@<----",
"] . + . + . + .*-->@@@<@@@<^----",
"_  +   +   +   *--^2<@@@@<|-----",
"-!*!*!*!3!*!*!*}-------^--------",
"]*{}_*{*{*{}{*{]_{1{1{1{1{1{1{1-",
"]#//}#/$/;*//#/{;%,#,%,#,%,#,%,-",
"_ # ; # ,{# # #*4#%#&#&#&#%#&#%-",
"-$/#* /#/;'$/ /{1#,%,#,%,#,%,#,-",
"_ # ;/# # {-;*/*4#&#%#&#%#&#%#&-",
"]#/$*#/$/#]{/#*{;%,%,%,#,%,%,%,-",
"_ # #{# #{# # ;}4#&#&#%#&#&#&#%-",
"-;/#/ ]-] /#/$'_{#,%,#,%,#,%,#,-",
"}]# #/_-};#/#/#*4,&#%#&#%,&#%#,-",
"]/!$/$*;//]-'#/{;%,#,%,#,%,#,,--",
"_ /'#{# # ~];{;}4#%#&#&#&#%#,-_-",
"-$/{-//#/$/;/ '}1#,%,#,%,#,%;_,-",
"_ #;}/# # ~;#/#*4#&#%#&#%#,#%#&-",
"]#/$;//$/#'//#/{;%,%,%,#,,-;,%,-",
"_ # #]/ #/_;# #*4#&#&#%#,-_,&#%-",
"-]]}-]-}-]-}-]]]-}]_-}]_---_-}]-",
};